<?xml version="1.0" encoding="UTF-8" standalone="no"?>
<!-- Created with Inkscape (http://www.inkscape.org/) -->

<svg
   xmlns:dc="http://purl.org/dc/elements/1.1/"
   xmlns:cc="http://creativecommons.org/ns#"
   xmlns:rdf="http://www.w3.org/1999/02/22-rdf-syntax-ns#"
   xmlns:svg="http://www.w3.org/2000/svg"
   xmlns="http://www.w3.org/2000/svg"
   xmlns:sodipodi="http://sodipodi.sourceforge.net/DTD/sodipodi-0.dtd"
   xmlns:inkscape="http://www.inkscape.org/namespaces/inkscape"
   width="200mm"
   height="200mm"
   viewBox="0 0 200 200"
   version="1.1"
   id="svg8"
   inkscape:version="0.92.2 5c3e80d, 2017-08-06"
   sodipodi:docname="logo.svg">
  <defs
     id="defs2" />
  <sodipodi:namedview
     id="base"
     pagecolor="#ffffff"
     bordercolor="#666666"
     borderopacity="1.0"
     inkscape:pageopacity="0.0"
     inkscape:pageshadow="2"
     inkscape:zoom="0.98994949"
     inkscape:cx="493.66058"
     inkscape:cy="481.94296"
     inkscape:document-units="mm"
     inkscape:current-layer="layer1"
     showgrid="false"
     inkscape:window-width="2560"
     inkscape:window-height="1415"
     inkscape:window-x="1920"
     inkscape:window-y="0"
     inkscape:window-maximized="1" />
  <metadata
     id="metadata5">
    <rdf:RDF>
      <cc:Work
         rdf:about="">
        <dc:format>image/svg+xml</dc:format>
        <dc:type
           rdf:resource="http://purl.org/dc/dcmitype/StillImage" />
        <dc:title></dc:title>
      </cc:Work>
    </rdf:RDF>
  </metadata>
  <g
     inkscape:label="Layer 1"
     inkscape:groupmode="layer"
     id="layer1"
     transform="translate(0,-97)">
    <path
       style="fill:#c1ff00;fill-opacity:1;stroke:#030000;stroke-width:0.91457415;stroke-miterlimit:4;stroke-dasharray:none;stroke-opacity:1"
       id="path978"
       sodipodi:type="arc"
       sodipodi:cx="100.76022"
       sodipodi:cy="189.20615"
       sodipodi:rx="88.242043"
       sodipodi:ry="90.19754"
       sodipodi:start="0"
       sodipodi:end="4.1085051"
       d="M 189.00227,189.20615 A 88.242043,90.19754 0 0 1 118.40316,277.58247 88.242043,90.19754 0 0 1 19.573167,224.54571 88.242043,90.19754 0 0 1 50.652534,114.96127 l 50.107686,74.24488 z" />
    <ellipse
       style="fill:#f7ff00;fill-opacity:1;stroke:#030000;stroke-width:0.90040845;stroke-miterlimit:4;stroke-dasharray:none;stroke-opacity:1"
       id="path819-3"
       cx="100.3127"
       cy="220.28568"
       rx="77.691597"
       ry="27.479355" />
    <ellipse
       style="fill:#f7ff00;fill-opacity:1;stroke:#030000;stroke-width:0.88090205;stroke-miterlimit:4;stroke-dasharray:none;stroke-opacity:1"
       id="path819-6"
       cx="100.86832"
       cy="216.03487"
       rx="76.008484"
       ry="26.884045" />
    <path
       d="m 97.848625,160.64814 c 0.61685,2.10048 2.303015,4.13731 2.427415,6.3651 0.28932,5.23384 -3.56937,10.52267 -5.673325,15.04477 -0.825726,1.77356 -1.091896,4.18362 -2.175415,5.77489 -1.358076,1.99922 -4.472056,-0.0492 -6.440898,-0.22856 -1.405818,-0.12731 -2.69765,0.0434 -2.314585,1.68675 -0.566784,0.50053 -0.476516,1.05891 0.332436,1.3222 2.265684,0.73199 4.648832,0.89111 6.900628,1.86034 -0.919756,0.49475 -2.027278,1.63757 -0.272249,1.95872 1.71973,0.31536 2.157186,-0.90558 3.492124,-1.50738 1.643644,-0.74066 3.100969,-0.79853 4.538319,-2.09179 1.448055,-1.30486 1.977515,-3.34746 2.906245,-5.01396 1.21804,-2.1844 3.01763,-4.146 4.09102,-6.36511 h 0.28932 c 0,6.57342 1.05603,14.63105 -1.70121,20.81388 -0.86509,1.94425 -5.483815,0.70884 -5.844025,2.65887 -0.22539,1.22094 2.097285,0.66545 2.626745,0.54104 v 0.28932 c -2.803825,1.17465 -4.301351,5.13548 0,4.05052 0.19675,1.17465 0.9837,1.72725 1.73594,0.57865 1.85167,0.41662 2.1786,-1.42347 3.59918,-2.25962 1.57681,-0.92872 3.1594,-1.20647 4.43821,-2.67044 3.23751,-3.70912 3.52106,-10.54292 5.52028,-15.03321 0.97501,-2.18728 3.06103,-3.92611 3.83641,-6.07578 0.56418,-1.56234 -1.53919,-4.25883 -0.95187,-5.03711 0.88533,-1.17175 4.36299,0.28354 5.54632,0.45424 3.49501,0.49763 8.66522,-1.35403 12.15156,-2.07155 v 0.28932 c -9.03267,4.47583 -9.46665,13.95982 -6.09893,22.27785 1.17465,2.89901 3.90585,5.15862 4.07366,8.39036 -2.91637,0 -5.92822,-1.80537 -8.67968,-1.40322 -3.14204,0.46002 -2.41006,6.42297 -0.44556,7.89562 1.56234,1.16886 2.73699,-0.47449 4.20676,-0.73199 3.42847,-0.60179 8.87641,0.84482 11.79568,-1.83141 1.25277,-1.14572 0.7696,-2.7341 0.99527,-4.21833 0.41952,-2.73699 1.1544,-5.61575 1.67518,-8.39035 h 0.57865 c 1.25566,2.63283 5.85878,5.70544 8.67968,6.39403 2.16991,0.52946 5.47977,0.33561 6.65442,2.57497 -2.66177,-1.14572 -7.7307,-2.48239 -10.37222,-0.61915 -3.32722,2.3464 3.64836,4.00712 5.16442,4.09102 -0.34141,1.87192 0.16201,3.929 2.59232,2.96845 3.07261,-1.21516 6.71518,-3.91742 8.94008,-6.37667 0.63072,-0.69727 1.7041,-1.11678 1.92688,-2.10627 0.40216,-1.76776 -1.68097,-3.15651 -2.80353,-4.16625 -2.96266,-2.66177 -8.45402,-4.10838 -8.89089,-8.54659 -0.64519,-6.61681 4.74779,-10.18415 7.33723,-15.62342 2.19306,-4.60891 1.38585,-11.35881 0.44555,-16.20208 3.39086,1.81696 4.45557,6.17705 4.6176,9.83698 0.34139,7.70756 -4.34853,14.02637 -2.0976,21.98852 0.61047,2.15546 1.41479,6.06421 3.5847,7.22439 1.52184,0.81299 2.439,-0.6452 2.17282,-2.01658 -1.07628,-5.53764 -2.04261,-9.60262 -0.68569,-15.33411 1.11389,-4.71016 2.51711,-9.05 2.84983,-13.88749 0.1041,-1.53629 0.57285,-3.13915 -0.052,-4.62915 -1.09653,-2.62416 -3.73806,-6.30724 -6.33906,-7.54554 -2.06577,-0.9808 -4.52502,-0.92005 -6.65443,-1.74172 -1.74462,-0.67702 -2.94241,-2.16124 -4.62916,-2.92969 -3.30117,-1.50361 -6.78751,-2.23415 -10.1263,-3.54073 -5.83853,-2.28449 -12.10526,-5.05793 -17.05846,-9.00776 -2.78328,-2.21824 -4.44399,-5.66842 -7.53396,-7.64739 -8.4627,-5.42075 -22.22288,-6.14232 -31.246847,-2.15285 -4.129221,1.82563 -6.908162,5.61749 -9.092839,9.3946 -0.591662,1.02275 -1.820421,2.23184 -1.815784,3.47187 0.0044,1.23367 1.215155,2.15082 1.741721,3.18256 0.872889,1.71104 1.501587,3.89312 1.766018,5.78644 0.304377,2.1815 -1.343325,3.67152 -1.143399,5.78646 0.169831,1.79669 0.802008,5.5955 2.245147,6.78172 3.313905,2.71964 9.809773,-0.71173 12.664228,-2.7312 z"
       style="fill:#000000;stroke-width:0.28932267"
       id="path4"
       inkscape:connector-curvature="0" />
  </g>
</svg>
